<svg width="96" height="116" viewBox="0 0 96 116" fill="none" xmlns="http://www.w3.org/2000/svg">
<path d="M69.347 0.565143C68.8735 0.239334 68.3372 0.0613036 67.7379 0.0310523C67.1572 0.00949397 66.6209 0.143017 66.1289 0.431621C65.6498 0.785943 65.2922 1.23102 65.0562 1.76685C64.8949 2.31624 64.8949 2.85033 65.0562 3.36912L68.0061 13.9174C58.9063 27.2387 50.861 39.0333 43.8702 49.3009L28.1819 13.9174L35.2886 4.30378C35.6556 3.80411 35.8344 3.22551 35.8249 2.56798C35.8082 2.01094 35.5847 1.47685 35.1545 0.965712C34.8112 0.533502 34.3196 0.221948 33.6795 0.0310523C33.1257 -0.0537903 32.5446 0.0352253 31.9364 0.298098L1.4983 14.0509C1.01712 14.2936 0.614857 14.6497 0.291509 15.1191C0.0421883 15.6647 -0.0472037 16.1988 0.0233324 16.7214C0.100852 17.3549 0.324333 17.889 0.693774 18.3237C1.14737 18.7336 1.63903 18.9562 2.16875 18.9913L13.0299 20.8606C21.6269 35.9768 29.27 49.2846 35.959 60.7839C26.5878 74.4762 19.5259 84.802 14.773 91.7612C12.3197 95.3534 10.4871 98.0239 9.27543 99.7726C8.64968 100.734 8.15803 101.446 7.80046 101.909C7.69151 102.147 7.60212 102.325 7.53228 102.443C7.47187 102.532 7.42717 102.577 7.39819 102.577C5.76399 105.42 6.52382 106.8 9.67769 106.716C10.073 106.71 10.4305 106.621 10.7504 106.449C11.1596 106.292 11.4725 106.069 11.689 105.781L41.5907 70.6646C49.5732 84.6295 55.6518 95.2223 59.8267 102.443C62.0821 106.339 63.7806 109.232 64.9221 111.122C65.4878 112.149 65.89 112.906 66.1289 113.392C66.3464 113.661 66.4805 113.839 66.5312 113.926C66.6153 114.091 66.66 114.18 66.6652 114.193C68.3302 116.46 69.7157 116.594 70.822 114.594C71.2113 114.201 71.4348 113.711 71.4924 113.125C71.6551 112.64 71.6104 112.151 71.3583 111.656L49.2338 61.585L80.8786 24.3322L92.8125 26.4686C93.4421 26.6188 94.0231 26.5298 94.5556 26.2015C95.1007 25.9793 95.503 25.5788 95.7624 24.9998C96.0253 24.4859 96.0701 23.9073 95.8965 23.264C95.8165 22.7174 95.5484 22.2278 95.092 21.7953L69.347 0.565143Z" fill="#a58a6e"/>
</svg>
