<svg width="614" height="421" viewBox="0 0 614 421" fill="none" xmlns="http://www.w3.org/2000/svg">
<g clip-path="url(#clip0_24_39)">
<path fill-rule="evenodd" clip-rule="evenodd" d="M602.276 115.872C606.707 132.494 609.514 144.313 610.675 151.335C611.844 160.935 612.775 172.403 613.475 185.746C614.175 198.618 614.175 210.676 613.475 221.912C613.244 226.596 612.075 239.348 609.976 260.184C608.807 269.314 607.876 276.455 607.176 281.603C606.476 283.239 605.657 285.234 604.726 287.572C603.557 296.701 600.408 306.645 595.277 317.418C588.747 331.695 580.817 342.818 571.48 350.775C569.149 352.882 563.55 358.851 554.682 368.682C548.152 375.705 541.265 381.442 534.035 385.887C529.604 388.696 520.155 393.493 505.688 400.284C492.859 406.133 483.291 409.764 476.992 411.168V410.817C462.993 416.204 444.796 419.595 422.398 421L395.802 419.947C352.407 415.501 317.761 398.647 291.864 369.384C290.234 368.212 288.827 366.807 287.665 365.171C274.835 353.001 265.149 338.956 258.618 323.036L258.268 323.387C257.569 321.28 256.4 318.591 254.769 315.311C252.9 310.866 251.388 307.467 250.219 305.128C249.988 303.492 249.638 301.498 249.17 299.159C248.47 294.946 247.77 291.905 247.07 290.03C246.839 284.644 246.839 278.675 247.07 272.123C241.24 277.509 233.771 282.776 224.673 287.923C223.742 288.394 222.573 288.857 221.173 289.328C220.473 289.328 219.885 289.56 219.423 290.03C214.293 293.078 208.575 296.119 202.275 299.159C186.177 306.884 172.067 311.449 159.93 312.853C159.231 313.092 158.412 313.324 157.481 313.555H157.131C155.5 314.026 153.862 314.258 152.231 314.258C147.332 314.96 141.733 315.782 135.433 316.716H127.034C126.104 316.716 119.216 315.894 106.387 314.258C105.687 314.026 101.957 313.436 95.1884 312.502C92.1507 311.8 89.1201 311.329 86.0895 311.098C85.6275 310.866 85.2706 310.746 85.0396 310.746C79.9092 309.342 74.3099 307.235 68.2417 304.426C62.6423 302.088 55.8742 298.808 47.9441 294.595C42.1139 291.554 36.2766 287.923 30.4463 283.71C27.1777 281.371 22.5162 277.979 16.448 273.527C13.8793 271.42 9.32986 266.736 2.79966 259.482C2.56869 259.482 2.21873 259.243 1.74979 258.78C1.04987 257.607 0.468943 256.673 0 255.971C4.8994 258.078 9.44885 259.363 13.6483 259.833C19.4786 262.172 24.847 263.464 29.7464 263.696C39.3142 264.166 48.5251 263.344 57.393 261.238C60.6546 260.535 63.3423 259.714 65.442 258.78C77.8095 256.673 88.7702 253.281 98.338 248.597C106.968 243.913 116.074 237.6 125.635 229.636C132.396 223.787 142.202 214.657 155.031 202.249C161.33 195.928 170.548 185.275 182.678 170.296C194.807 155.078 204.256 144.193 211.024 137.641C220.354 128.28 230.622 117.508 241.82 105.338C248.358 98.0835 258.268 87.0792 271.567 72.3319C282.303 60.3936 294.195 49.9792 307.262 41.0817C316.83 34.5227 327.21 28.6729 338.409 23.5254C344.708 20.7164 351.119 18.0268 357.656 15.4496C358.825 14.7473 360.106 13.9257 361.506 12.9916C364.543 11.5872 368.736 9.94391 374.104 8.0759C379.004 6.2009 383.553 4.91574 387.753 4.2135C394.752 2.57727 403.851 1.16574 415.049 0L433.247 0.70224C437.678 0.93399 442.115 1.40451 446.545 2.10675C452.376 2.10675 460.544 2.22614 471.042 2.45789C476.642 2.68961 483.641 3.98178 492.04 6.32028C496.47 7.49304 502.658 9.24866 510.588 11.5872C518.987 13.4622 527.617 17.4369 536.484 23.5254C543.484 28.2094 550.602 34.0592 557.832 41.0817C580.929 63.5538 593.527 82.5146 595.627 97.9641C598.658 106.159 600.877 112.129 602.276 115.872ZM586.528 244.033C587.459 218.983 587.347 201.195 586.178 190.661C584.779 180.128 580.11 159.643 572.18 129.214C568.911 117.276 565.65 107.683 562.381 100.422C557.713 90.8222 551.302 81.4612 543.134 72.3319C542.203 71.3979 541.153 70.4569 539.984 69.5229C539.522 69.0594 539.053 68.4695 538.584 67.7673C532.754 62.1493 525.286 56.4119 516.187 50.5621C493.79 36.7488 472.561 29.2558 452.495 28.0901C446.664 28.0901 442.815 28.4412 440.946 29.1435C427.879 28.9117 417.38 29.614 409.45 31.2502C375.154 34.9932 340.158 50.5622 304.463 77.95C290.695 89.186 277.397 101.475 264.568 114.818C256.4 123.245 250.688 129.797 247.42 134.481C225.722 163.976 198.195 192.888 164.83 221.209C156.2 228.464 145.932 236.778 134.034 246.139C131.234 248.014 129.015 249.77 127.384 251.406C116.417 257.024 105.806 261.94 95.5383 266.153C79.2093 272.474 66.6109 275.402 57.7429 274.932C39.0762 274.229 24.616 271.42 14.3482 266.505C20.6475 270.479 26.9467 273.878 33.2459 276.687C36.0456 277.86 38.9642 279.026 41.9949 280.199C47.1252 283.478 54.1244 286.758 62.9923 290.03C74.4219 294.012 83.6398 296.119 90.6389 296.35C90.8699 296.35 91.1009 296.35 91.3388 296.35C92.7387 296.582 94.1385 296.701 95.5383 296.701C138.002 298.576 174.748 289.798 205.775 270.367C216.973 263.576 226.191 256.09 233.421 247.895C235.052 246.02 237.383 243.681 240.421 240.872C244.382 237.361 247.189 234.433 248.82 232.094C260.249 215.008 269.117 202.368 275.416 194.173C282.877 184.573 288.015 178.14 290.814 174.861C296.883 167.375 302.363 161.286 307.262 156.602C308.193 155.9 309.012 155.198 309.712 154.495C310.881 153.561 312.162 152.74 313.562 152.038C316.13 150.401 319.28 148.526 323.011 146.42C325.11 144.783 326.979 143.372 328.61 142.206C328.841 142.206 329.191 142.087 329.66 141.855V141.504C335.49 138.695 341.558 135.535 347.858 132.023C348.088 132.023 348.319 131.904 348.557 131.672C349.726 131.202 350.776 130.851 351.707 130.619C361.737 128.512 373.873 126.876 388.103 125.703V125.352L420.999 126.756C455.763 137.059 480.26 152.157 494.49 172.052C497.989 177.199 500.789 182.466 502.889 187.852C504.288 189.489 505.807 191.947 507.438 195.226C507.669 195.928 508.369 198.386 509.538 202.6C510.238 205.177 510.588 207.284 510.588 208.92C510.819 211.961 511.288 216.525 511.987 222.614C512.218 227.761 512.218 232.214 511.987 235.957C511.757 240.641 510.238 247.544 507.438 256.673C503.239 270.016 497.52 282.074 490.29 292.839C468.593 325.613 437.097 341.175 395.802 339.539C380.173 338.605 367.455 333.801 357.656 325.143C351.357 321.168 346.458 316.364 342.958 310.746C339.69 305.36 337.709 299.04 337.009 291.786C337.009 290.613 337.009 289.567 337.009 288.626C337.009 288.155 337.009 287.804 337.009 287.572C336.778 285.697 336.778 283.822 337.009 281.954C337.24 271.42 340.158 263.934 345.758 259.482C345.527 259.946 345.177 260.416 344.708 260.887C343.777 264.868 343.308 267.326 343.308 268.26C343.077 269.433 343.077 271.42 343.308 274.229C343.777 277.277 344.008 279.033 344.008 279.496C344.239 279.967 344.477 280.901 344.708 282.305C344.708 286.048 345.408 289.328 346.808 292.137C348.207 295.416 350.545 299.391 353.807 304.075C357.075 308.52 359.987 311.68 362.556 313.555C363.956 314.728 365.936 316.013 368.505 317.418C374.335 320.459 381.222 322.102 389.152 322.334H390.552C390.79 322.334 391.021 322.334 391.252 322.334C396.621 322.565 401.051 322.565 404.551 322.334C405.481 322.334 406.3 322.453 407 322.685H407.35C433.247 320.81 452.495 310.859 465.093 292.839C473.961 280.669 478.623 267.326 479.091 252.811C480.022 235.023 476.992 218.632 469.993 203.653C460.894 184.222 446.314 168.772 426.248 157.304C393.121 146.539 361.044 151.455 330.01 172.052C319.049 179.306 309.831 187.501 302.363 196.631L302.013 196.982C298.052 200.732 292.914 205.409 286.615 211.027C285.446 211.961 284.165 213.133 282.765 214.538C281.597 217.586 280.316 220.739 278.916 224.018C274.247 235.725 271.686 246.378 271.217 255.971C270.986 264.166 271.336 272.003 272.267 279.496C273.667 308.289 282.416 331.933 298.514 350.424C320.68 375.705 355.088 389.279 401.751 391.154C443.284 393.029 476.411 386.59 501.139 371.842H501.489C513.156 366.224 523.774 359.553 533.335 351.828C544.764 342.467 553.751 332.046 560.282 320.578C561.681 318.001 562.85 315.662 563.781 313.555C566.35 308.64 568.911 303.141 571.48 297.053C578.948 279.728 583.96 262.059 586.528 244.033ZM352.057 400.635C351.357 400.403 350.776 400.284 350.307 400.284C351.007 400.754 351.707 400.986 352.407 400.986L352.057 400.635Z" fill="black"/>
<path fill-rule="evenodd" clip-rule="evenodd" d="M586.528 244.033C583.96 262.059 578.948 279.728 571.48 297.053C568.911 303.141 566.35 308.64 563.781 313.555C562.85 315.662 561.681 318.001 560.281 320.578C553.751 332.046 544.771 342.467 533.335 351.828C523.767 359.553 513.156 366.224 501.489 371.842H501.139C476.411 386.59 443.277 393.029 401.751 391.154C355.088 389.279 320.68 375.705 298.513 350.424C282.415 331.933 273.667 308.289 272.267 279.496C271.336 272.01 270.986 264.166 271.217 255.971C271.686 246.371 274.247 235.725 278.916 224.018C280.316 220.739 281.597 217.579 282.765 214.538C284.165 213.133 285.446 211.961 286.615 211.027C292.914 205.409 298.045 200.732 302.013 196.982L302.363 196.631C309.824 187.501 319.042 179.306 330.01 172.052C361.044 151.455 393.121 146.539 426.248 157.304C446.314 168.772 460.894 184.222 469.992 203.653C476.992 218.632 480.029 235.023 479.091 252.811C478.622 267.326 473.961 280.669 465.093 292.839C452.495 310.859 433.247 320.81 407.35 322.685H407C406.3 322.446 405.481 322.334 404.551 322.334C401.051 322.565 396.62 322.565 391.252 322.334C391.021 322.334 390.79 322.334 390.552 322.334H389.152C381.222 322.102 374.335 320.459 368.505 317.418C365.936 316.013 363.955 314.728 362.556 313.555C359.987 311.68 357.075 308.52 353.807 304.075C350.545 299.391 348.207 295.416 346.808 292.137C345.408 289.328 344.708 286.048 344.708 282.305C344.477 280.901 344.239 279.967 344.008 279.496C344.008 279.033 343.777 277.277 343.308 274.229C343.077 271.42 343.077 269.433 343.308 268.26C343.308 267.326 343.777 264.868 344.708 260.887C345.177 260.423 345.527 259.953 345.758 259.482C340.158 263.927 337.24 271.42 337.009 281.954C336.778 283.829 336.778 285.697 337.009 287.572C337.009 287.804 337.009 288.155 337.009 288.626C337.009 289.56 337.009 290.613 337.009 291.786C337.709 299.047 339.689 305.367 342.958 310.746C346.458 316.364 351.357 321.161 357.656 325.143C367.455 333.801 380.172 338.605 395.802 339.539C437.097 341.175 468.593 325.613 490.29 292.839C497.527 282.067 503.238 270.016 507.438 256.673C510.238 247.544 511.756 240.641 511.987 235.957C512.218 232.214 512.218 227.761 511.987 222.614C511.287 216.525 510.818 211.961 510.588 208.92C510.588 207.284 510.238 205.177 509.538 202.6C508.369 198.386 507.669 195.928 507.438 195.226C505.807 191.954 504.288 189.496 502.888 187.852C500.789 182.466 497.989 177.199 494.49 172.052C480.26 152.157 455.763 137.059 420.999 126.757L388.103 125.352V125.703C373.866 126.876 361.737 128.512 351.707 130.619C350.776 130.851 349.726 131.202 348.557 131.672C348.326 131.904 348.095 132.023 347.857 132.023C341.558 135.535 335.49 138.695 329.66 141.504V141.855C329.191 142.087 328.841 142.206 328.61 142.206C326.979 143.379 325.11 144.783 323.01 146.42C319.28 148.526 316.13 150.394 313.562 152.038C312.162 152.74 310.881 153.561 309.712 154.495C309.012 155.198 308.193 155.9 307.262 156.602C302.363 161.286 296.883 167.375 290.814 174.861C288.015 178.14 282.884 184.573 275.416 194.173C269.117 202.368 260.249 215.008 248.82 232.094C247.189 234.433 244.389 237.361 240.421 240.872C237.383 243.681 235.052 246.02 233.421 247.895C226.191 256.09 216.973 263.576 205.775 270.367C174.748 289.798 138.002 298.576 95.5382 296.701C94.1384 296.701 92.7386 296.582 91.3387 296.35C91.1078 296.35 90.8768 296.35 90.6388 296.35C83.6397 296.112 74.4218 294.012 62.9922 290.03C54.1243 286.758 47.1251 283.478 41.9948 280.199C38.9641 279.026 36.0455 277.86 33.2458 276.687C26.9466 273.878 20.6474 270.486 14.3481 266.505C24.6159 271.42 39.0831 274.229 57.7428 274.932C66.6108 275.402 79.2092 272.474 95.5382 266.153C105.806 261.94 116.417 257.024 127.384 251.406C129.015 249.77 131.234 248.014 134.034 246.139C145.932 236.778 156.2 228.464 164.83 221.209C198.195 192.888 225.722 163.976 247.42 134.481C250.688 129.797 256.4 123.245 264.568 114.818C277.397 101.475 290.695 89.186 304.463 77.95C340.158 50.5622 375.154 34.9933 409.45 31.2502C417.38 29.614 427.879 28.9117 440.946 29.1435C442.815 28.4412 446.664 28.0901 452.495 28.0901C472.561 29.2629 493.79 36.7489 516.187 50.5622C525.286 56.4119 532.754 62.1493 538.584 67.7673C539.046 68.4696 539.515 69.0595 539.984 69.5229C541.153 70.4569 542.203 71.398 543.134 72.332C551.302 81.4612 557.713 90.8223 562.381 100.422C565.65 107.683 568.911 117.276 572.18 129.214C580.11 159.643 584.779 180.128 586.178 190.661C587.347 201.195 587.459 218.983 586.528 244.033Z" fill="white"/>
<path fill-rule="evenodd" clip-rule="evenodd" d="M352.057 400.635L352.407 400.986C351.707 400.986 351.007 400.754 350.307 400.284C350.776 400.284 351.357 400.403 352.057 400.635Z" fill="url(#paint0_radial_24_39)"/>
</g>
<defs>
<radialGradient id="paint0_radial_24_39" cx="0" cy="0" r="1" gradientUnits="userSpaceOnUse" gradientTransform="translate(250.22 76.1998) scale(519.16 520.627)">
<stop stop-color="#94CCE2"/>
</radialGradient>
<clipPath id="clip0_24_39">
<rect width="614" height="421" fill="white" transform="matrix(1 0 0 -1 0 421)"/>
</clipPath>
</defs>
</svg>
