<svg width="101" height="85" viewBox="0 0 101 85" fill="none" xmlns="http://www.w3.org/2000/svg">
    <path d="M29.125 43.6606H21L16 33.5947L17.25 21.0123C18.0833 18.9152 22 14.3436 31 12.8337C40 11.3238 49.75 12.2046 53.5 12.8337L55.6582 34.124L66 33.5947V43.6606L68.5 54.9849H91C90.375 56.6625 88.875 61.2761 87.875 66.309C86.875 71.342 80.375 72.1808 77.25 71.9711H49.125L42.25 70.7129L39.125 68.1964V63.7926L34.125 57.5013V51.8392L29.125 49.9519V43.6606Z" fill="#E2C116" fill-opacity="0.99"/>
    <path d="M56 57L43 41.9974V6.36614C80.1429 2.36544 93.9683 32.204 95 44.4978L56 57Z" fill="#F1E93F"/>
    <circle cx="48.5" cy="36.5" r="15.5" fill="#EDCB19" fill-opacity="0.99"/>
    <circle cx="48" cy="36" r="13" fill="#C5AC28" fill-opacity="0.99"/>
    <circle cx="48" cy="35" r="11" fill="#F1E93F"/>
    <path d="M42.8038 38L48 29L53.1962 38H42.8038Z" stroke="#F3D019" stroke-opacity="0.99" stroke-width="2"/>
    </svg>