<svg width="96" height="96" viewBox="0 0 96 96" fill="none" xmlns="http://www.w3.org/2000/svg">
    <path d="M47.4746 82C46.7542 82 46.0339 81.7119 45.4576 81.1356L17.9407 54.4831C17.6525 54.1949 17.2203 53.9068 16.7881 53.3305C16.2119 52.7542 15.4915 51.8898 14.339 50.4492C13.1864 49.0085 12.178 47.5678 11.3136 46.1271C10.4492 44.6864 9.58474 42.8136 9.00847 40.7966C8.28813 38.6356 8 36.6186 8 34.7458C8 28.2627 9.87288 23.2203 13.6186 19.4746C17.3644 15.7288 22.5508 14 29.178 14C31.0508 14 32.9237 14.2881 34.7966 15.0085C36.6695 15.5847 38.3983 16.4492 40.1271 17.6017C41.7119 18.6102 43.1525 19.6186 44.3051 20.6271C45.4576 21.6356 46.6102 22.6441 47.6186 23.6525C48.6271 22.6441 49.7797 21.6356 50.9322 20.6271C52.0848 19.6186 53.5254 18.6102 55.1102 17.6017C56.6949 16.5932 58.5678 15.7288 60.4407 15.0085C62.3136 14.4322 64.1865 14 66.0593 14C72.6865 14 77.8729 15.8729 81.6186 19.4746C85.3644 23.0763 87.2373 28.2627 87.2373 34.7458C87.2373 41.2288 83.9237 47.8559 77.1525 54.6271L49.4915 81.1356C48.9153 81.7119 48.1949 82 47.4746 82Z" fill="#887F7F"/>
    </svg>
    