<svg width="40" height="40" viewBox="0 0 40 40" fill="none" xmlns="http://www.w3.org/2000/svg">
    <rect width="2.78808" height="32.701" rx="1.39404" transform="matrix(0.83223 -0.55443 0.571154 0.820843 9.52194 5.54578)" fill="#887F7F"/>
    <path fill-rule="evenodd" clip-rule="evenodd" d="M14.1505 7.61379L16.1272 10.2517C21.6403 10.5976 31.3346 13.9171 26.0073 24.4278L28.6415 28.3836L37.9284 21.1747C38.7018 20.7384 39.7869 19.4039 37.94 17.556C35.8371 15.9499 33.4277 14.2042 31.1742 12.5715C28.9477 10.9583 26.8734 9.45537 25.3973 8.30631C23.141 6.55003 21.6827 6.30639 20.8115 6.16085C20.5111 6.11066 20.2805 6.07213 20.1111 5.98725C19.7917 5.98628 19.5163 5.97918 19.2694 5.97281C17.7261 5.93301 17.2934 5.92185 14.1505 7.61379ZM18.4305 14.2064C21.2982 14.1056 26.3011 15.3491 23.3711 21.13L18.4305 14.2064ZM11.0598 10.4172L13.3812 13.7469C11.4802 17.839 9.68361 24.0357 20.673 25.3984L24.5393 30.0827C24.4035 30.1239 24.2627 30.1678 24.1174 30.2131C22.7155 30.6502 20.8957 31.2177 19.2069 30.7309C13.6652 27.3913 2.44954 20.3794 1.92077 19.0487C1.25626 18.4929 0.327866 17.1167 1.93035 16.0584L11.0598 10.4172Z" fill="#887F7F"/>
    </svg>
    